<svg xmlns="http://www.w3.org/2000/svg" viewBox="0 0 400 300"><g id="_36_online_shopping_outline" data-name="#36_online_shopping_outline"><rect x="146.74" y="58.22" width="106.51" height="183.56" rx="18.54" fill="#a84599"/><path d="M234.72,242.78H165.28a19.56,19.56,0,0,1-19.54-19.54V76.76a19.56,19.56,0,0,1,19.54-19.54h69.44a19.56,19.56,0,0,1,19.54,19.54V223.24A19.56,19.56,0,0,1,234.72,242.78ZM165.28,59.22a17.56,17.56,0,0,0-17.54,17.54V223.24a17.56,17.56,0,0,0,17.54,17.54h69.44a17.56,17.56,0,0,0,17.54-17.54V76.76a17.56,17.56,0,0,0-17.54-17.54Z" fill="#093f68"/><rect x="155.51" y="77.08" width="88.99" height="138.45" rx="7.2" fill="#fff"/><path d="M237.3,216.53H162.7a8.2,8.2,0,0,1-8.19-8.2V84.27a8.19,8.19,0,0,1,8.19-8.19h74.6a8.19,8.19,0,0,1,8.19,8.19V208.33A8.2,8.2,0,0,1,237.3,216.53ZM162.7,78.08a6.2,6.2,0,0,0-6.19,6.19V208.33a6.2,6.2,0,0,0,6.19,6.2h74.6a6.2,6.2,0,0,0,6.19-6.2V84.27a6.2,6.2,0,0,0-6.19-6.19Z" fill="#093f68"/><circle cx="186.26" cy="67.88" r="1.39" fill="#093f68"/><path d="M215.13,68.88H192.9a1,1,0,1,1,0-2h22.23a1,1,0,0,1,0,2Z" fill="#093f68"/><circle cx="200" cy="227.67" r="6.62" fill="#093f68"/><path d="M200,235.29a7.62,7.62,0,1,1,7.62-7.62A7.63,7.63,0,0,1,200,235.29Zm0-13.24a5.62,5.62,0,1,0,5.62,5.62A5.62,5.62,0,0,0,200,222.05Z" fill="#093f68"/><path d="M141.91,107.66h23.24a0,0,0,0,1,0,0v4.25a11.62,11.62,0,0,1-11.62,11.62h0a11.62,11.62,0,0,1-11.62-11.62v-4.25a0,0,0,0,1,0,0Z" fill="#f56132"/><path d="M153.53,124.52a12.63,12.63,0,0,1-12.62-12.61v-4.25a1,1,0,0,1,1-1h23.24a1,1,0,0,1,1,1v4.25A12.63,12.63,0,0,1,153.53,124.52Zm-10.62-15.86v3.25a10.62,10.62,0,0,0,21.24,0v-3.25Z" fill="#093f68"/><path d="M165.15,107.66h23.24a0,0,0,0,1,0,0v4.25a11.62,11.62,0,0,1-11.62,11.62h0a11.62,11.62,0,0,1-11.62-11.62v-4.25A0,0,0,0,1,165.15,107.66Z" fill="#ffbc0e"/><path d="M176.76,124.52a12.63,12.63,0,0,1-12.61-12.61v-4.25a1,1,0,0,1,1-1h23.23a1,1,0,0,1,1,1v4.25A12.63,12.63,0,0,1,176.76,124.52Zm-10.61-15.86v3.25a10.62,10.62,0,0,0,21.23,0v-3.25Z" fill="#093f68"/><path d="M188.38,107.66h23.24a0,0,0,0,1,0,0v4.25A11.62,11.62,0,0,1,200,123.52h0a11.62,11.62,0,0,1-11.62-11.62v-4.25a0,0,0,0,1,0,0Z" fill="#f56132"/><path d="M200,124.52a12.63,12.63,0,0,1-12.62-12.61v-4.25a1,1,0,0,1,1-1h23.24a1,1,0,0,1,1,1v4.25A12.63,12.63,0,0,1,200,124.52Zm-10.62-15.86v3.25a10.62,10.62,0,0,0,21.24,0v-3.25Z" fill="#093f68"/><path d="M211.62,107.66h23.24a0,0,0,0,1,0,0v4.25a11.62,11.62,0,0,1-11.62,11.62h0a11.62,11.62,0,0,1-11.62-11.62v-4.25a0,0,0,0,1,0,0Z" fill="#ffbc0e"/><path d="M223.24,124.52a12.63,12.63,0,0,1-12.62-12.61v-4.25a1,1,0,0,1,1-1h23.23a1,1,0,0,1,1,1v4.25A12.63,12.63,0,0,1,223.24,124.52Zm-10.62-15.86v3.25a10.62,10.62,0,0,0,21.23,0v-3.25Z" fill="#093f68"/><polygon points="154.52 74.92 141.91 107.66 165.15 107.66 172.71 74.92 154.52 74.92" fill="#f56132"/><path d="M165.15,108.66H141.91a1,1,0,0,1-.93-1.36l12.61-32.74a1,1,0,0,1,.93-.64h18.19a1,1,0,0,1,1,1.23l-7.57,32.73A1,1,0,0,1,165.15,108.66Zm-21.78-2h21l7.11-30.74H155.21Z" fill="#093f68"/><polygon points="172.71 74.92 165.15 107.66 188.38 107.66 190.91 74.92 172.71 74.92" fill="#ffbc0e"/><path d="M188.38,108.66H165.15a1,1,0,0,1-1-1.23l7.57-32.73a1,1,0,0,1,1-.78H190.9a1,1,0,0,1,.74.32,1,1,0,0,1,.26.76l-2.52,32.74A1,1,0,0,1,188.38,108.66Zm-22-2h21.06l2.36-30.74H173.51Z" fill="#093f68"/><polygon points="190.91 74.92 188.38 107.66 211.62 107.66 209.09 74.92 190.91 74.92" fill="#f56132"/><path d="M211.62,108.66H188.38a1,1,0,0,1-.73-.32,1,1,0,0,1-.26-.76l2.52-32.74a1,1,0,0,1,1-.92h18.2a1,1,0,0,1,1,.92l2.52,32.74a1,1,0,0,1-.26.76A1,1,0,0,1,211.62,108.66Zm-22.16-2h21.08l-2.37-30.74H191.83Z" fill="#093f68"/><polygon points="209.09 74.92 211.62 107.66 234.85 107.66 227.29 74.92 209.09 74.92" fill="#ffbc0e"/><path d="M234.85,108.66H211.62a1,1,0,0,1-1-.92L208.1,75a1,1,0,0,1,.26-.76,1,1,0,0,1,.74-.32h18.19a1,1,0,0,1,1,.78l7.57,32.73a1,1,0,0,1-1,1.23Zm-22.31-2H233.6l-7.11-30.74H210.18Z" fill="#093f68"/><polygon points="227.29 74.92 234.85 107.66 258.09 107.66 245.48 74.92 227.29 74.92" fill="#f56132"/><path d="M258.09,108.66H234.85a1,1,0,0,1-1-.78l-7.57-32.73a1,1,0,0,1,1-1.23h18.19a1,1,0,0,1,.93.64L259,107.3a1,1,0,0,1-.93,1.36Zm-22.44-2h21L244.79,75.92H228.54Z" fill="#093f68"/><path d="M234.85,107.66h23.24a0,0,0,0,1,0,0v4.25a11.62,11.62,0,0,1-11.62,11.62h0a11.62,11.62,0,0,1-11.62-11.62v-4.25A0,0,0,0,1,234.85,107.66Z" fill="#f56132"/><path d="M246.47,124.52a12.63,12.63,0,0,1-12.62-12.61v-4.25a1,1,0,0,1,1-1h23.24a1,1,0,0,1,1,1v4.25A12.63,12.63,0,0,1,246.47,124.52Zm-10.62-15.86v3.25a10.62,10.62,0,0,0,21.24,0v-3.25Z" fill="#093f68"/><rect x="176.19" y="187.86" width="47.63" height="13.68" rx="5.82" fill="#70cc40"/><path d="M218,202.55H182a6.83,6.83,0,0,1-6.81-6.82v-2a6.82,6.82,0,0,1,6.81-6.81h36a6.82,6.82,0,0,1,6.81,6.81v2A6.83,6.83,0,0,1,218,202.55Zm-36-13.68a4.82,4.82,0,0,0-4.81,4.81v2a4.82,4.82,0,0,0,4.81,4.82h36a4.82,4.82,0,0,0,4.81-4.82v-2a4.82,4.82,0,0,0-4.81-4.81Z" fill="#093f68"/><path d="M205.94,150.5a1,1,0,0,1-1-1V138.16a6.33,6.33,0,0,0-12.66,0V149.5a1,1,0,0,1-2,0V138.16a8.33,8.33,0,1,1,16.66,0V149.5A1,1,0,0,1,205.94,150.5Z" fill="#093f68"/><path d="M179.57,146.48h7.57a0,0,0,0,1,0,0V178.2a0,0,0,0,1,0,0h-10.2a0,0,0,0,1,0,0V149.11A2.63,2.63,0,0,1,179.57,146.48Z" fill="#a84599"/><path d="M187.14,179.2h-10.2a1,1,0,0,1-1-1V149.11a3.64,3.64,0,0,1,3.63-3.63h7.57a1,1,0,0,1,1,1V178.2A1,1,0,0,1,187.14,179.2Zm-9.2-2h8.2V147.48h-6.57a1.63,1.63,0,0,0-1.63,1.63Z" fill="#093f68"/><path d="M187.59,146.48h32.84a2.63,2.63,0,0,1,2.63,2.63V178.2a0,0,0,0,1,0,0H184.72a0,0,0,0,1,0,0V149.35A2.87,2.87,0,0,1,187.59,146.48Z" fill="#a84599"/><path d="M223.06,179.2H184.72a1,1,0,0,1-1-1V149.35a3.88,3.88,0,0,1,3.87-3.87h32.84a3.64,3.64,0,0,1,3.63,3.63V178.2A1,1,0,0,1,223.06,179.2Zm-37.34-2h36.34V149.11a1.63,1.63,0,0,0-1.63-1.63H187.59a1.87,1.87,0,0,0-1.87,1.87Z" fill="#093f68"/><path d="M211.07,153.73a1,1,0,0,1-1-1V138.16a6.33,6.33,0,1,0-12.66,0v14.57a1,1,0,0,1-2,0V138.16a8.33,8.33,0,1,1,16.66,0v14.57A1,1,0,0,1,211.07,153.73Z" fill="#093f68"/><path d="M195.54,196a1.71,1.71,0,0,1-.21.88,1.76,1.76,0,0,1-.55.57,2.71,2.71,0,0,1-.78.31,4.33,4.33,0,0,1-.89.09h-2.53v-6.36h2.53a3.82,3.82,0,0,1,.75.08,2.31,2.31,0,0,1,.71.26,1.52,1.52,0,0,1,.51.5,1.48,1.48,0,0,1,.19.8,1.32,1.32,0,0,1-.28.87,1.61,1.61,0,0,1-.76.5v0a1.78,1.78,0,0,1,.51.16,1.64,1.64,0,0,1,.41.31,1.48,1.48,0,0,1,.28.45A1.4,1.4,0,0,1,195.54,196Zm-1.75-2.67a.52.52,0,0,0-.24-.47,1.46,1.46,0,0,0-.74-.15h-.75V194h.83a1.06,1.06,0,0,0,.66-.17A.61.61,0,0,0,193.79,193.28Zm.21,2.53a.56.56,0,0,0-.3-.55,1.76,1.76,0,0,0-.79-.15h-.85v1.45h.86a2.31,2.31,0,0,0,.37,0,1.2,1.2,0,0,0,.35-.11.72.72,0,0,0,.26-.23A.65.65,0,0,0,194,195.81Z" fill="#fff"/><path d="M204,196.45a2.38,2.38,0,0,1-.55.81,2.52,2.52,0,0,1-.87.52,3.06,3.06,0,0,1-1.12.19,3.17,3.17,0,0,1-1.14-.19,2.43,2.43,0,0,1-.85-.52,2.5,2.5,0,0,1-.54-.81,2.89,2.89,0,0,1-.19-1v-4h1.53v3.84a1.57,1.57,0,0,0,.07.49,1.17,1.17,0,0,0,.2.42,1.06,1.06,0,0,0,.37.29,1.36,1.36,0,0,0,.56.11,1.35,1.35,0,0,0,.55-.11,1.06,1.06,0,0,0,.37-.29,1,1,0,0,0,.21-.42,1.93,1.93,0,0,0,.06-.49v-3.84h1.54v4A2.69,2.69,0,0,1,204,196.45Z" fill="#fff"/><path d="M210.55,195.11v2.69H209v-2.69l-2.39-3.67h1.86l1.36,2.36,1.35-2.36H213Z" fill="#fff"/></g></svg>