<svg xmlns="http://www.w3.org/2000/svg" viewBox="0 0 400 300"><g id="_31_map_outline" data-name="#31_map_outline"><rect x="105.31" y="82.57" width="189.38" height="134.86" rx="3.68" fill="#fff"/><path d="M291,218.43H109a4.69,4.69,0,0,1-4.68-4.68V86.25A4.69,4.69,0,0,1,109,81.57H291a4.69,4.69,0,0,1,4.68,4.68v127.5A4.69,4.69,0,0,1,291,218.43ZM109,83.57a2.69,2.69,0,0,0-2.68,2.68v127.5a2.69,2.69,0,0,0,2.68,2.68H291a2.69,2.69,0,0,0,2.68-2.68V86.25A2.69,2.69,0,0,0,291,83.57Z" fill="#093f68"/><rect x="114.14" y="90.04" width="171.72" height="119.92" fill="#dfeaef"/><path d="M285.86,211H114.14a1,1,0,0,1-1-1V90a1,1,0,0,1,1-1H285.86a1,1,0,0,1,1,1V210A1,1,0,0,1,285.86,211Zm-170.72-2H284.86V91H115.14Z" fill="#093f68"/><path d="M114.14,158.94s30.18-3.61,50.68,6.65S200,210,200,210H114.14Z" fill="#bc72ca"/><path d="M200,211H114.14a1,1,0,0,1-1-1v-51a1,1,0,0,1,.88-1,127.08,127.08,0,0,1,17.81-.53c9.32.35,22.69,1.9,33.44,7.27,8.67,4.34,17.31,13.22,25.67,26.39a148.71,148.71,0,0,1,10,18.48,1,1,0,0,1-.09.95A1,1,0,0,1,200,211Zm-84.86-2h83.31c-3-6.48-16.47-33.68-34.08-42.48-18.05-9-44.13-7.12-49.23-6.64Z" fill="#093f68"/><path d="M114.14,137.58s69.39-16.88,95.26-14.05c23.16,2.52,41.32,43.1,76.46,47.37V158.06s-30.64-11.8-46.88-30.24-31.76-15.9-47.11-15.48c-14.22.4-77.73,12.19-77.73,12.19Z" fill="#bc72ca"/><path d="M285.86,171.9h-.12c-19.66-2.39-34.08-15.94-46.8-27.9-10.49-9.86-19.56-18.38-29.64-19.48-25.41-2.77-94.23,13.87-94.92,14a1,1,0,0,1-1.24-1V124.53a1,1,0,0,1,.82-1c2.59-.48,63.75-11.81,77.88-12.2,1.39,0,2.79-.09,4.18-.15,14.08-.56,28.64-1.15,43.71,16,15.88,18,46.19,29.85,46.49,30a1,1,0,0,1,.64.93V170.9a1,1,0,0,1-.34.75A1,1,0,0,1,285.86,171.9Zm-83.23-49.69a65.33,65.33,0,0,1,6.88.32c10.75,1.17,20.49,10.32,30.8,20,12.25,11.52,26.11,24.54,44.55,27.22v-11c-4.51-1.83-31.72-13.33-46.63-30.26-14.44-16.4-27.89-15.86-42.13-15.29q-2.1.09-4.2.15c-13.11.37-69.29,10.64-76.76,12v11C124,134.19,175.44,122.21,202.63,122.21Z" fill="#093f68"/><path d="M198,160.26,192.28,151a2.71,2.71,0,0,1,.88-3.74l9.67-6a2.69,2.69,0,0,1,2.84,0l13.48,8.23a2.72,2.72,0,0,1-.4,4.84l-17.4,7A2.71,2.71,0,0,1,198,160.26Z" fill="#70cc40"/><path d="M200.33,162.55a3.73,3.73,0,0,1-3.16-1.76h0l-5.74-9.26a3.66,3.66,0,0,1-.46-2.81,3.75,3.75,0,0,1,1.66-2.32l9.67-6a3.68,3.68,0,0,1,3.9,0l13.47,8.23a3.67,3.67,0,0,1,1.77,3.47,3.72,3.72,0,0,1-2.32,3.15l-17.4,7A3.74,3.74,0,0,1,200.33,162.55Zm-1.46-2.81a1.73,1.73,0,0,0,2.11.68l17.4-7a1.72,1.72,0,0,0,.25-3.06l-13.48-8.23a1.69,1.69,0,0,0-1.8,0l-9.67,6a1.68,1.68,0,0,0-.76,1.06,1.69,1.69,0,0,0,.21,1.3Z" fill="#093f68"/><path d="M213.77,210H207.9L180,149H114.14v-5.34H181.7a2.67,2.67,0,0,1,2.43,1.56l1,2.14,9.51,20.79,2.23,4.87Z" fill="#fff"/><path d="M275.25,90A2.66,2.66,0,0,1,274,92.31l-64.84,40.14-5,3.07-19.07,11.81-2,1.24a2.66,2.66,0,0,1-1.4.4A2.67,2.67,0,0,1,180.3,144l.65-.4,21.77-13.48.3-.17L234.8,110.3l4.62-2.86L267.52,90Z" fill="#fff"/><path d="M277.13,210h-6.39L237,158.51l-.86-1.32-3.88-2.63-28-19-1.43-1a2.66,2.66,0,0,1-.7-3.7,2.63,2.63,0,0,1,.67-.7l.3-.17a2.64,2.64,0,0,1,2.72.16l3.41,2.31L239.45,153a.16.16,0,0,1,.08.06.74.74,0,0,1,.17.12.79.79,0,0,1,.17.14,2,2,0,0,1,.24.26,2.33,2.33,0,0,1,.26.38Z" fill="#fff"/><path d="M194.77,173.57a2.67,2.67,0,0,1-.91-5.18l43.27-15.61a2.67,2.67,0,1,1,1.81,5l-43.27,15.61A2.59,2.59,0,0,1,194.77,173.57Z" fill="#fff"/><path d="M239.83,111.86a2.64,2.64,0,0,1-3.76-.18l-1.27-1.38L216.41,90h7.21l15.8,17.4.59.66A2.66,2.66,0,0,1,239.83,111.86Z" fill="#fff"/><path d="M155.08,146.21a2.67,2.67,0,0,1-2.57,2.76h-.1a2.68,2.68,0,0,1-2.67-2.58l-.1-2.76L147.81,90h5.34L155,143.63Z" fill="#fff"/><polygon points="235.53 164.59 209.41 175.13 228.27 209.96 261.32 209.96 250.11 192.43 240.54 196.72 233.45 184.95 244.21 180.02 235.53 164.59" fill="#dfeaef"/><path d="M261.32,211h-33a1,1,0,0,1-.88-.52l-18.86-34.83a1,1,0,0,1-.07-.82,1,1,0,0,1,.57-.59l26.13-10.54a1,1,0,0,1,1.24.44l8.68,15.43a1,1,0,0,1,.08.8,1,1,0,0,1-.53.6l-9.75,4.46,6.06,10.05,8.76-3.93a1,1,0,0,1,1.25.38l11.21,17.53a1,1,0,0,1-.84,1.54Zm-32.45-2h30.62l-9.76-15.27L241,197.63a1,1,0,0,1-1.27-.4l-7.09-11.77a1,1,0,0,1-.1-.81A1,1,0,0,1,233,184l9.78-4.47-7.72-13.73-24.27,9.8Z" fill="#093f68"/><path d="M285.86,93.32l-34.3,23.36s13,24.71,34.3,30.55Z" fill="#70cc40"/><path d="M285.86,148.23a.75.75,0,0,1-.26,0c-11.24-3.08-20.14-11.37-25.63-17.78a80.18,80.18,0,0,1-9.3-13.26,1,1,0,0,1,.32-1.29L285.3,92.49a1,1,0,0,1,1-.06,1,1,0,0,1,.53.89v53.91a1,1,0,0,1-1,1Zm-33-31.24c2.36,4.11,14.19,23.28,32,28.9V95.21Z" fill="#093f68"/><path d="M114.14,117.14s11.23,1.65,17.91-7.25,8-19.85,8-19.85H114.14Z" fill="#70cc40"/><path d="M116.38,118.27a17.58,17.58,0,0,1-2.39-.14,1,1,0,0,1-.85-1V90a1,1,0,0,1,1-1h25.92a1,1,0,0,1,.75.34,1,1,0,0,1,.24.78,46.93,46.93,0,0,1-8.2,20.33C127.73,117.31,120.19,118.27,116.38,118.27Zm-1.24-2c2.66.15,10.92,0,16.11-6.93S138.35,94,138.89,91H115.14Z" fill="#093f68"/><polygon points="162.43 90.04 162.43 103.65 214.25 102.66 214.25 90.04 162.43 90.04" fill="#dfeaef"/><path d="M162.43,104.65a1,1,0,0,1-.7-.29.94.94,0,0,1-.3-.71V90a1,1,0,0,1,1-1h51.82a1,1,0,0,1,1,1v12.62a1,1,0,0,1-1,1l-51.82,1Zm1-13.61v11.59l49.82-.95V91Z" fill="#093f68"/><polygon points="274.84 174.36 266.08 179.37 273.84 190.89 282.6 184.88 274.84 174.36" fill="#dfeaef"/><path d="M273.84,191.89l-.19,0a1,1,0,0,1-.64-.43l-7.76-11.51a1,1,0,0,1-.15-.79,1,1,0,0,1,.48-.64l8.76-5a1,1,0,0,1,1.3.28l7.77,10.51a1,1,0,0,1,.18.76,1,1,0,0,1-.42.66l-8.77,6A.94.94,0,0,1,273.84,191.89Zm-6.33-12.19,6.59,9.79,7.08-4.85-6.62-9Z" fill="#093f68"/><polygon points="164.82 140.4 163.68 133.79 179.2 130.29 181.71 137.3 164.82 140.4" fill="#dfeaef"/><path d="M164.82,141.4a1,1,0,0,1-.57-.18,1,1,0,0,1-.41-.65L162.69,134a1,1,0,0,1,.77-1.15l15.52-3.5a1,1,0,0,1,1.16.64l2.51,7a1,1,0,0,1-.08.84,1,1,0,0,1-.68.48L165,141.38Zm0-6.84.8,4.67,14.74-2.71-1.81-5.06Z" fill="#093f68"/><polygon points="174.69 153.07 162.43 155.29 177.7 164.59 174.69 153.07" fill="#dfeaef"/><path d="M177.7,165.59a1,1,0,0,1-.52-.15l-15.27-9.3a1,1,0,0,1,.34-1.83l12.27-2.23a1,1,0,0,1,1.14.74l3,11.51a1,1,0,0,1-1,1.26Zm-12.5-9.79,10.91,6.65L174,154.22Z" fill="#093f68"/><polygon points="236.11 96.01 242.04 102.66 246.55 99.34 240.46 92.74 236.11 96.01" fill="#dfeaef"/><path d="M242,103.66a1,1,0,0,1-.74-.33l-5.93-6.65a1,1,0,0,1-.25-.77,1,1,0,0,1,.39-.7l4.34-3.27a1,1,0,0,1,1.34.12l6.09,6.6a1,1,0,0,1,.26.77,1,1,0,0,1-.4.71l-4.5,3.33A1,1,0,0,1,242,103.66Zm-4.46-7.5,4.6,5.16,2.88-2.13-4.72-5.11Z" fill="#093f68"/><path d="M285.86,211H114.14a1,1,0,0,1-1-1V90a1,1,0,0,1,1-1H285.86a1,1,0,0,1,1,1V210A1,1,0,0,1,285.86,211Zm-170.72-2H284.86V91H115.14Z" fill="#093f68"/></g></svg>