<svg xmlns="http://www.w3.org/2000/svg" xmlns:xlink="http://www.w3.org/1999/xlink" viewBox="0 0 400 300"><defs><linearGradient id="linear-gradient" x1="166.56" y1="245.93" x2="155.33" y2="259.79" gradientUnits="userSpaceOnUse"><stop offset="0"/><stop offset="1" stop-color="#fff"/></linearGradient><linearGradient id="linear-gradient-2" x1="75.19" y1="184.48" x2="67.91" y2="203.78" xlink:href="#linear-gradient"/><linearGradient id="linear-gradient-3" x1="218.34" y1="204.55" x2="192.87" y2="224.32" xlink:href="#linear-gradient"/></defs><title>ZZZ</title><g style="isolation:isolate"><g id="Layer_2" data-name="Layer 2"><path d="M205.27,280.09,379.92,176.87c5.56-3.12,10.33-8.25,4.91-11.61l-175.27-101c-2.63-1.63-6.62-2.7-9.3-1.14L16.93,169.5c-5.56,3.23-6.56,12.25-1,15.48l166.32,94.94A23.22,23.22,0,0,0,205.27,280.09Z" fill="#225870"/><path d="M133.8,248.89l32.14-19.31L194.42,249,165.3,268.61S142.33,253.77,133.8,248.89Z" opacity="0.46" fill="url(#linear-gradient)" style="mix-blend-mode:multiply"/><path d="M15.93,185l68.66-44.1L130.3,195,85.47,222.75S32.5,194.44,15.93,185Z" opacity="0.46" fill="url(#linear-gradient-2)" style="mix-blend-mode:multiply"/><path d="M144.63,209.63l62-36.27,63.77,42.9-62.9,39S161.2,219.09,144.63,209.63Z" opacity="0.46" fill="url(#linear-gradient-3)" style="mix-blend-mode:multiply"/><path d="M42.56,170l102.62-58.88a7.19,7.19,0,0,1,7.21,0l54.77,32a4.23,4.23,0,0,1,0,7.31L105.6,209.23a9.48,9.48,0,0,1-9.6-.06L42.5,177.28A4.23,4.23,0,0,1,42.56,170Z" fill="#0e5648"/><path d="M42.56,165.35l102.62-58.88a7.19,7.19,0,0,1,7.21,0l54.77,32a4.23,4.23,0,0,1,0,7.31L105.6,204.59a9.48,9.48,0,0,1-9.6-.06L42.5,172.65A4.23,4.23,0,0,1,42.56,165.35Z" fill="#bc72ca"/><path d="M142.68,113.83c.57.19,52.4,30.43,52.4,30.43L108.5,195l-52.31-30.2Z" fill="#fff"/><path d="M86.16,190.17a1.34,1.34,0,0,0,.41-1.94,9.81,9.81,0,0,0-2.52-1.9c-.88-.55-1.81-1-2.71-1.56l-7-4.08-5.72-3.35a3,3,0,0,0-2.54-.28,3,3,0,0,0-1.48,1.13,1.22,1.22,0,0,0,.56,1.76l10.54,6.1,4.54,2.63,2.63,1.54a3.18,3.18,0,0,0,2.68.27A2.31,2.31,0,0,0,86.16,190.17Z" fill="#0e5648"/><ellipse cx="60.11" cy="174.41" rx="1.83" ry="1.51" fill="#0e5648"/><polygon points="187.24 186.86 187.21 191.08 188.78 188.83 187.24 186.86" fill="#9e2f0d"/><path d="M189.33,187.46,292,128.58a7.19,7.19,0,0,1,7.21,0l54.77,32a4.23,4.23,0,0,1,0,7.31L252.38,226.7a9.48,9.48,0,0,1-9.6-.06l-53.5-31.88A4.23,4.23,0,0,1,189.33,187.46Z" fill="#9e2f0d"/><polygon points="356.02 159.65 356.02 164.29 354.39 161.97 356.02 159.65" fill="#9e2f0d"/><path d="M189.33,182.83,292,123.94a7.19,7.19,0,0,1,7.21,0l54.77,32a4.23,4.23,0,0,1,0,7.31L252.38,222.06a9.48,9.48,0,0,1-9.6-.06l-53.5-31.88A4.23,4.23,0,0,1,189.33,182.83Z" fill="#f15a24"/><path d="M289.46,131.3c.57.19,52.4,30.43,52.4,30.43l-86.58,50.72L203,182.25Z" fill="#bc72ca"/><path d="M232.94,207.65a1.34,1.34,0,0,0,.41-1.94,9.81,9.81,0,0,0-2.52-1.9c-.88-.55-1.81-1-2.71-1.56l-7-4.08-5.72-3.35a3,3,0,0,0-2.54-.28,3,3,0,0,0-1.48,1.13,1.22,1.22,0,0,0,.56,1.76l10.54,6.1,4.54,2.63,2.63,1.54a3.18,3.18,0,0,0,2.68.27A2.31,2.31,0,0,0,232.94,207.65Z" fill="#9e2f0d"/><ellipse cx="206.88" cy="191.88" rx="1.83" ry="1.51" fill="#9e2f0d"/><path d="M257.58,158.33v-.26a3.67,3.67,0,0,1,5.52-3.17L297.48,175a3.67,3.67,0,0,1,1.82,3.17h0a3.67,3.67,0,0,1-5.5,3.18l-34.38-19.8A3.67,3.67,0,0,1,257.58,158.33Z" fill="#124577"/><path d="M277.33,157.16a21.69,21.69,0,0,0-7.7,1.66c-3.89,1.67,7.57,5,7.57,5" fill="#f2ae16"/><path d="M278.34,172.34c3.33,1.87,6.5,4.05,9.8,6a13.48,13.48,0,0,0,1.6-11.87c-2.23-6.89-9.14-10.82-15.43-8.79a11.66,11.66,0,0,0-7.54,8.14C270.65,168,274.48,170.18,278.34,172.34Z" fill="#ea8b24"/><path d="M278.34,172.34c2.52,1.41,4.95,3,7.41,4.54a13.73,13.73,0,0,0,.4-9.7c-2.23-6.89-9.14-10.82-15.43-8.79a11.39,11.39,0,0,0-6.7,5.93C268.83,166.93,273.57,169.67,278.34,172.34Z" fill="#ffd008"/><path d="M278.72,171.95c2.06,1.16,4.07,2.44,6.08,3.71a12,12,0,0,0,.31-8.41c-2-6-8-9.49-13.53-7.7a10,10,0,0,0-5.84,5.13C270.11,167.05,274.4,169.52,278.72,171.95Z" fill="none" stroke="#f7931e" stroke-miterlimit="10"/><path d="M278.34,172.34l.65.38a3,3,0,0,0-.57-1.81,3.45,3.45,0,0,0-1.47-1.13q-.87-.35-1.73-.62a6.25,6.25,0,0,1-1.46-.64,1.1,1.1,0,0,1-.59-1,1.15,1.15,0,0,1,.47-.9,1.78,1.78,0,0,1,1.19-.35,2.66,2.66,0,0,1,1.18.31,3.44,3.44,0,0,1,.75.47l.28.29,1.57-1.6-.27-.3a4.12,4.12,0,0,0-.94-.68,5.25,5.25,0,0,0-1.5-.58l0-1.67-2.24,0,0,1.65a3.91,3.91,0,0,0-2.34,1.18,3.21,3.21,0,0,0-.9,2.18,4,4,0,0,0,0,.4Z" fill="#ea8b24"/><ellipse cx="177.41" cy="240.95" rx="21.89" ry="12.82" fill="#fcd11a"/><polygon points="155.52 240.95 155.52 237.25 157.9 240.21 155.52 240.95" fill="#fcd11a"/><polygon points="199.29 237.25 199.29 240.95 196.52 240.95 198.55 237.98 199.29 237.25" fill="#fcd11a"/><ellipse cx="177.41" cy="237.4" rx="21.89" ry="12.82" fill="#fede17"/><ellipse cx="177.44" cy="237.4" rx="18.37" ry="10.76" fill="#fea500"/><path d="M188.17,233.68a1.71,1.71,0,0,1,.17,1l-.09.34-4,0a1.82,1.82,0,0,0,.07-.34,1.49,1.49,0,0,0-.24-.73,2.19,2.19,0,0,0-1-.89,4.37,4.37,0,0,0-1.88-.49,4,4,0,0,0-1.78.27q-.84.36-.65.94a3.46,3.46,0,0,0,.85,1.25,15.22,15.22,0,0,1,1.21,1.39,1.46,1.46,0,0,1,.22,1.54,3.44,3.44,0,0,1-1.94,1.51,11.5,11.5,0,0,1-4.23.88,13.54,13.54,0,0,1-4.63-.65l-2.3,1-2.69-1.31,2.23-1a5,5,0,0,1-1.07-1,2.84,2.84,0,0,1-.53-.89,2.93,2.93,0,0,1-.14-.72,1.56,1.56,0,0,1,0-.5l.08-.19h4a3.19,3.19,0,0,0-.1.4,1.7,1.7,0,0,0,.32.91,3,3,0,0,0,1.32,1.13,5.68,5.68,0,0,0,2.32.6,4.83,4.83,0,0,0,2.14-.34q.83-.36.62-.94a3.45,3.45,0,0,0-.88-1.25,12.79,12.79,0,0,1-1.22-1.39,1.43,1.43,0,0,1-.17-1.55,3.73,3.73,0,0,1,2-1.54,11,11,0,0,1,4.06-.8,11.73,11.73,0,0,1,4.33.67l2.29-1,2.51,1.37-2.3,1A3.27,3.27,0,0,1,188.17,233.68Z" fill="#fff039"/><ellipse cx="177.41" cy="233.95" rx="21.89" ry="12.82" fill="#fcd11a"/><polygon points="155.52 233.94 155.52 230.24 157.9 233.2 155.52 233.94" fill="#fcd11a"/><polygon points="199.29 230.24 199.29 233.94 196.52 233.94 198.55 230.97 199.29 230.24" fill="#fcd11a"/><ellipse cx="177.41" cy="230.4" rx="21.89" ry="12.82" fill="#fede17"/><ellipse cx="177.44" cy="230.4" rx="18.37" ry="10.76" fill="#fea500"/><path d="M188.17,226.67a1.71,1.71,0,0,1,.17,1l-.09.34-4,0a1.82,1.82,0,0,0,.07-.34,1.49,1.49,0,0,0-.24-.73,2.19,2.19,0,0,0-1-.89,4.37,4.37,0,0,0-1.88-.49,4,4,0,0,0-1.78.27q-.84.36-.65.94a3.46,3.46,0,0,0,.85,1.25,15.22,15.22,0,0,1,1.21,1.39,1.46,1.46,0,0,1,.22,1.54,3.44,3.44,0,0,1-1.94,1.51,11.5,11.5,0,0,1-4.23.88,13.54,13.54,0,0,1-4.63-.65l-2.3,1-2.69-1.31,2.23-1a5,5,0,0,1-1.07-1,2.84,2.84,0,0,1-.53-.89,2.93,2.93,0,0,1-.14-.72,1.56,1.56,0,0,1,0-.5l.08-.19h4a3.19,3.19,0,0,0-.1.4,1.7,1.7,0,0,0,.32.91,3,3,0,0,0,1.32,1.13,5.68,5.68,0,0,0,2.32.6,4.83,4.83,0,0,0,2.14-.34q.83-.36.62-.94a3.45,3.45,0,0,0-.88-1.25,12.79,12.79,0,0,1-1.22-1.39,1.43,1.43,0,0,1-.17-1.55,3.73,3.73,0,0,1,2-1.54,11,11,0,0,1,4.06-.8,11.73,11.73,0,0,1,4.33.67l2.29-1,2.51,1.37-2.3,1A3.27,3.27,0,0,1,188.17,226.67Z" fill="#fff039"/><ellipse cx="177.41" cy="226.35" rx="21.89" ry="12.82" fill="#fcd11a"/><polygon points="155.52 226.35 155.52 222.65 157.9 225.61 155.52 226.35" fill="#fcd11a"/><polygon points="199.29 222.65 199.29 226.35 196.52 226.35 198.55 223.38 199.29 222.65" fill="#fcd11a"/><ellipse cx="177.41" cy="222.8" rx="21.89" ry="12.82" fill="#fede17"/><ellipse cx="177.44" cy="222.8" rx="18.37" ry="10.76" fill="#fea500"/><path d="M188.17,219.08a1.71,1.71,0,0,1,.17,1l-.09.34-4,0a1.82,1.82,0,0,0,.07-.34,1.49,1.49,0,0,0-.24-.73,2.19,2.19,0,0,0-1-.89,4.37,4.37,0,0,0-1.88-.49,4,4,0,0,0-1.78.27q-.84.36-.65.94a3.46,3.46,0,0,0,.85,1.25,15.22,15.22,0,0,1,1.21,1.39,1.46,1.46,0,0,1,.22,1.54,3.44,3.44,0,0,1-1.94,1.51,11.5,11.5,0,0,1-4.23.88,13.54,13.54,0,0,1-4.63-.65l-2.3,1-2.69-1.31,2.23-1a5,5,0,0,1-1.07-1,2.84,2.84,0,0,1-.53-.89,2.93,2.93,0,0,1-.14-.72,1.56,1.56,0,0,1,0-.5l.08-.19h4a3.19,3.19,0,0,0-.1.4,1.7,1.7,0,0,0,.32.91,3,3,0,0,0,1.32,1.13,5.68,5.68,0,0,0,2.32.6,4.83,4.83,0,0,0,2.14-.34q.83-.36.62-.94a3.45,3.45,0,0,0-.88-1.25,12.79,12.79,0,0,1-1.22-1.39,1.43,1.43,0,0,1-.17-1.55,3.73,3.73,0,0,1,2-1.54,11,11,0,0,1,4.06-.8,11.73,11.73,0,0,1,4.33.67l2.29-1,2.51,1.37-2.3,1A3.27,3.27,0,0,1,188.17,219.08Z" fill="#fff039"/><ellipse cx="177.41" cy="219.44" rx="21.89" ry="12.82" fill="#fcd11a"/><polygon points="155.52 219.44 155.52 215.74 157.9 218.7 155.52 219.44" fill="#fcd11a"/><polygon points="199.29 215.74 199.29 219.44 196.52 219.44 198.55 216.47 199.29 215.74" fill="#fcd11a"/><ellipse cx="177.41" cy="215.89" rx="21.89" ry="12.82" fill="#fede17"/><ellipse cx="177.44" cy="215.89" rx="18.37" ry="10.76" fill="#fea500"/><path d="M188.17,212.17a1.71,1.71,0,0,1,.17,1l-.09.34-4,0a1.82,1.82,0,0,0,.07-.34,1.49,1.49,0,0,0-.24-.73,2.19,2.19,0,0,0-1-.89,4.37,4.37,0,0,0-1.88-.49,4,4,0,0,0-1.78.27q-.84.36-.65.94a3.46,3.46,0,0,0,.85,1.25,15.22,15.22,0,0,1,1.21,1.39,1.46,1.46,0,0,1,.22,1.54,3.44,3.44,0,0,1-1.94,1.51,11.5,11.5,0,0,1-4.23.88,13.54,13.54,0,0,1-4.63-.65l-2.3,1-2.69-1.31,2.23-1a5,5,0,0,1-1.07-1,2.84,2.84,0,0,1-.53-.89,2.93,2.93,0,0,1-.14-.72,1.56,1.56,0,0,1,0-.5l.08-.19h4a3.19,3.19,0,0,0-.1.4,1.7,1.7,0,0,0,.32.91,3,3,0,0,0,1.32,1.13,5.68,5.68,0,0,0,2.32.6,4.83,4.83,0,0,0,2.14-.34q.83-.36.62-.94a3.45,3.45,0,0,0-.88-1.25,12.79,12.79,0,0,1-1.22-1.39,1.43,1.43,0,0,1-.17-1.55,3.73,3.73,0,0,1,2-1.54,11,11,0,0,1,4.06-.8,11.73,11.73,0,0,1,4.33.67l2.29-1,2.51,1.37-2.3,1A3.27,3.27,0,0,1,188.17,212.17Z" fill="#fff039"/><ellipse cx="165.3" cy="208.39" rx="21.89" ry="12.82" fill="#fcd11a"/><polygon points="143.41 208.39 143.41 204.69 145.8 207.65 143.41 208.39" fill="#fcd11a"/><polygon points="187.19 204.69 187.19 208.39 184.41 208.39 186.45 205.42 187.19 204.69" fill="#fcd11a"/><ellipse cx="165.3" cy="204.84" rx="21.89" ry="12.82" fill="#fede17"/><ellipse cx="165.34" cy="204.84" rx="18.37" ry="10.76" fill="#fea500"/><path d="M176.06,201.12a1.71,1.71,0,0,1,.17,1l-.09.34-4,0a1.82,1.82,0,0,0,.07-.34,1.49,1.49,0,0,0-.24-.73,2.19,2.19,0,0,0-1-.89,4.37,4.37,0,0,0-1.88-.49,4,4,0,0,0-1.78.27q-.84.36-.65.94a3.46,3.46,0,0,0,.85,1.25,15.22,15.22,0,0,1,1.21,1.39,1.46,1.46,0,0,1,.22,1.54,3.44,3.44,0,0,1-1.94,1.51,11.5,11.5,0,0,1-4.23.88,13.54,13.54,0,0,1-4.63-.65l-2.3,1-2.69-1.31,2.23-1a5,5,0,0,1-1.07-1,2.84,2.84,0,0,1-.53-.89,2.93,2.93,0,0,1-.14-.72,1.56,1.56,0,0,1,0-.5l.08-.19h4a3.19,3.19,0,0,0-.1.4,1.7,1.7,0,0,0,.32.91,3,3,0,0,0,1.32,1.13,5.68,5.68,0,0,0,2.32.6,4.83,4.83,0,0,0,2.14-.34q.83-.36.62-.94a3.45,3.45,0,0,0-.88-1.25,12.79,12.79,0,0,1-1.22-1.39,1.43,1.43,0,0,1-.17-1.55,3.73,3.73,0,0,1,2-1.54,11,11,0,0,1,4.06-.8,11.73,11.73,0,0,1,4.33.67l2.29-1,2.51,1.37-2.3,1A3.27,3.27,0,0,1,176.06,201.12Z" fill="#fff039"/><path d="M129.84,151.68a11.1,11.1,0,0,1,.61-1.9" fill="none" stroke="#2e3192" stroke-linecap="round" stroke-miterlimit="10" stroke-width="2"/><path d="M134.27,141.47c8.38-15.93,29.2-44.57,67-41.93,55.49,3.87,67.86,39.62,70.61,54.58" fill="none" stroke="#2e3192" stroke-linecap="round" stroke-miterlimit="10" stroke-width="2" stroke-dasharray="4.07 9.16"/><path d="M272.49,158.65c.12,1.28.14,2,.14,2" fill="none" stroke="#2e3192" stroke-linecap="round" stroke-miterlimit="10" stroke-width="2"/><path d="M103.89,144.36v-.25a3.57,3.57,0,0,1,5.38-3.09l33.48,19.54a3.57,3.57,0,0,1,1.77,3.09h0a3.57,3.57,0,0,1-5.36,3.1l-33.48-19.29A3.57,3.57,0,0,1,103.89,144.36Z" fill="#124577"/><path d="M123.12,143.23a21.13,21.13,0,0,0-7.5,1.62c-3.79,1.63,7.38,4.91,7.38,4.91" fill="#f2ae16"/><path d="M124.11,158c3.24,1.82,6.33,3.95,9.54,5.85a13.13,13.13,0,0,0,1.56-11.56c-2.17-6.71-8.9-10.54-15-8.56a11.36,11.36,0,0,0-7.35,7.93C116.61,153.75,120.35,155.9,124.11,158Z" fill="#ea8b24"/><path d="M124.11,158c2.45,1.38,4.82,2.93,7.21,4.43a13.38,13.38,0,0,0,.39-9.44c-2.17-6.71-8.9-10.54-15-8.56a11.1,11.1,0,0,0-6.53,5.78C114.85,152.74,119.46,155.4,124.11,158Z" fill="#ffd008"/><path d="M124.48,157.63c2,1.13,4,2.38,5.92,3.62a11.73,11.73,0,0,0,.3-8.19c-1.91-5.88-7.8-9.24-13.17-7.5a9.72,9.72,0,0,0-5.68,5C116.09,152.86,120.27,155.26,124.48,157.63Z" fill="none" stroke="#f7931e" stroke-miterlimit="10"/><path d="M124.11,158l.63.37a2.91,2.91,0,0,0-.55-1.77,3.36,3.36,0,0,0-1.43-1.11q-.85-.34-1.69-.6a6.09,6.09,0,0,1-1.42-.63,1.07,1.07,0,0,1-.57-1,1.12,1.12,0,0,1,.45-.88,1.73,1.73,0,0,1,1.16-.34,2.59,2.59,0,0,1,1.15.3,3.35,3.35,0,0,1,.73.46l.27.29,1.53-1.56-.26-.29a4,4,0,0,0-.92-.67,5.12,5.12,0,0,0-1.46-.56l0-1.62-2.18,0,0,1.61a3.81,3.81,0,0,0-2.28,1.15,3.12,3.12,0,0,0-.88,2.12,3.94,3.94,0,0,0,0,.39Z" fill="#ea8b24"/><polyline points="152.37 110.23 154.13 113.76 154.53 110.99" fill="#fcd11a"/><ellipse cx="173.38" cy="103.66" rx="21.78" ry="11.28" transform="translate(-27.81 85.56) rotate(-25.73)" fill="#fcd11a"/><polygon points="191.61 91.32 193 94.2 191.61 94.2 191.61 91.32" fill="#fcd11a"/><ellipse cx="171.99" cy="100.77" rx="21.78" ry="11.28" transform="translate(-26.7 84.67) rotate(-25.73)" fill="#fede17"/><path d="M189.06,92.54c2.35,4.88-3.6,12-13,16.52s-18.77,4.83-21.12-.06,3.55-12.29,13-16.84S186.71,87.66,189.06,92.54Z" fill="#fea500"/><path d="M172.89,98.62c1.39,1.74,1.36,3.19-1,5a7.11,7.11,0,0,1-7.09,1.42L163,106.56l-1.36-.78,1.88-1.49a4.29,4.29,0,0,1-1.67-3.49l3.69-1.32a3.4,3.4,0,0,0,.9,2.61l2.26-1.8c-1.41-1.75-1.45-3.18.89-5s4.94-2.39,7.15-1.41l1.07-.85,1.37.77-1.13.89a3.45,3.45,0,0,1,1.3,2.74l-3.61,1.4a3,3,0,0,0-.63-1.89Zm-3.49,4c.51-.41.59-.74.2-1.35l-2.08,1.64a1.73,1.73,0,0,0,1.84-.26l0,0M172,97.66,174,96a1.74,1.74,0,0,0-1.84.24l0,0c-.49.39-.59.72-.16,1.34" fill="#fff039"/><polyline points="217.92 96.28 216.22 99.85 218.66 98.45" fill="#fcd11a"/><ellipse cx="236.06" cy="108.74" rx="11.28" ry="21.78" transform="translate(34.58 272.91) rotate(-63.91)" fill="#fcd11a"/><polygon points="257.03 115.44 255.62 118.32 254.76 117.22 257.03 115.44" fill="#fcd11a"/><ellipse cx="237.47" cy="105.86" rx="11.28" ry="21.78" transform="translate(37.95 272.57) rotate(-63.91)" fill="#fede17"/><path d="M254.5,114.2c-2.38,4.87-11.64,4.57-21,0s-15.39-11.77-13-16.64,11.86-4.81,21.26-.2S256.88,109.33,254.5,114.2Z" fill="#fea500"/><path d="M239.73,105.23c-.51,2.17-1.66,3-4.57,2.35a7.11,7.11,0,0,1-5.5-4.7l-2.3-.55-.23-1.55,2.34.56a4.29,4.29,0,0,1,1.71-3.47l3.32,2.08a3.4,3.4,0,0,0-1.5,2.32l2.81.67c.5-2.19,1.61-3.11,4.52-2.42s4.93,2.41,5.53,4.75l1.33.32.24,1.55-1.4-.34a3.45,3.45,0,0,1-1.35,2.71l-3.33-2a3,3,0,0,0,1.1-1.66Zm-5.26-.3c.63.15.95,0,1.18-.68l-2.58-.62a1.73,1.73,0,0,0,1.34,1.28l.05,0m5.45-1,2.53.6a1.74,1.74,0,0,0-1.33-1.3h-.05c-.61-.15-.93,0-1.15.7" fill="#fff039"/></g></g></svg>